<svg width="822" height="822" viewBox="0 0 822 822" fill="none" xmlns="http://www.w3.org/2000/svg">
<rect x="32.9966" y="411.35" width="535.132" height="535.132" rx="69" transform="rotate(-45 32.9966 411.35)" fill="#1EA342"/>
<rect x="-7.78411" y="410.847" width="592.093" height="593.399" rx="97" transform="rotate(-45 -7.78411 410.847)" stroke="#1EA342" stroke-width="12"/>
<path d="M411 495.428C379.911 495.428 354.714 520.625 354.714 551.714C354.714 582.803 379.911 608 411 608C442.089 608 467.286 582.803 467.286 551.714C467.286 520.625 442.089 495.428 411 495.428ZM411 326.571C442.089 326.571 467.286 301.375 467.286 270.286C467.286 239.197 442.089 214 411 214C379.911 214 354.714 239.197 354.714 270.286C354.714 301.375 379.911 326.571 411 326.571ZM579.857 368.786H242.143C226.603 368.786 214 381.388 214 396.928V425.071C214 440.611 226.603 453.214 242.143 453.214H579.857C595.397 453.214 608 440.611 608 425.071V396.928C608 381.388 595.397 368.786 579.857 368.786Z" fill="white"/>
</svg>
