<svg width="702" height="702" viewBox="0 0 702 702" fill="none" xmlns="http://www.w3.org/2000/svg">
<rect x="10.9524" y="351.346" width="481.453" height="481.453" rx="69" transform="rotate(-45 10.9524 351.346)" fill="#1EA342"/>
<rect x="2.12425" y="350.914" width="493.326" height="494.444" rx="74.5" transform="rotate(-45 2.12425 350.914)" stroke="#1EA342" stroke-width="3"/>
<circle cx="350.784" cy="249.788" r="35.7884" fill="white"/>
<circle cx="350.784" cy="451.365" r="35.7884" fill="white"/>
<path d="M268.32 336.182C268.32 330.015 273.319 325.017 279.485 325.017H512.835C519.001 325.017 524 330.015 524 336.182C524 342.348 519.001 347.347 512.835 347.347H279.485C273.319 347.347 268.32 342.348 268.32 336.182Z" fill="white"/>
<path d="M493.854 371.352C512.612 371.352 524 357.395 524 336.182C491.249 331.157 426.306 326.356 426.306 347.347C426.306 347.347 429.655 371.352 458.684 371.352C459.243 371.538 475.097 371.352 493.854 371.352Z" fill="white"/>
<path d="M196.864 348.463C196.864 346.613 198.364 345.114 200.214 345.114H248.223C256.547 345.114 263.541 350.807 265.525 358.512C265.892 359.939 266.087 361.436 266.087 362.978V376.376C266.087 377.918 265.892 379.414 265.525 380.842C263.541 388.547 256.547 394.24 248.223 394.24H200.214C198.364 394.24 196.864 392.74 196.864 390.89V348.463Z" fill="white"/>
<path d="M221.427 369.677C221.427 363.51 225.356 358.512 230.203 358.512H265.525H413.622C418.469 358.512 422.398 363.51 422.398 369.677C422.398 375.843 418.469 380.842 413.622 380.842H265.525H230.203C225.356 380.842 221.427 375.843 221.427 369.677Z" fill="white"/>
<path d="M179 356.279C179 355.045 180 354.046 181.233 354.046H232.592C233.825 354.046 234.825 355.045 234.825 356.279C234.825 357.512 233.825 358.512 232.592 358.512H181.233C180 358.512 179 357.512 179 356.279Z" fill="#1EA342"/>
<path d="M179 369.677C179 368.443 180 367.444 181.233 367.444H232.592C233.825 367.444 234.825 368.443 234.825 369.677C234.825 370.91 233.825 371.91 232.592 371.91H181.233C180 371.91 179 370.91 179 369.677Z" fill="#1EA342"/>
<path d="M179 383.075C179 381.841 180 380.842 181.233 380.842H232.592C233.825 380.842 234.825 381.841 234.825 383.075C234.825 384.308 233.825 385.308 232.592 385.308H181.233C180 385.308 179 384.308 179 383.075Z" fill="#1EA342"/>
<path d="M179 388.657C179 386.807 180.5 385.308 182.35 385.308H244.874C246.724 385.308 248.223 386.807 248.223 388.657V390.89C248.223 392.74 246.724 394.24 244.874 394.24H182.35C180.5 394.24 179 392.74 179 390.89V388.657Z" fill="white"/>
<path d="M179 375.259C179 373.409 180.5 371.91 182.35 371.91H244.874C246.724 371.91 248.223 373.409 248.223 375.259V377.492C248.223 379.342 246.724 380.842 244.874 380.842H182.35C180.5 380.842 179 379.342 179 377.492V375.259Z" fill="white"/>
<path d="M179 361.861C179 360.011 180.5 358.512 182.35 358.512H244.874C246.724 358.512 248.223 360.011 248.223 361.861V364.094C248.223 365.944 246.724 367.444 244.874 367.444H182.35C180.5 367.444 179 365.944 179 364.094V361.861Z" fill="white"/>
<path d="M179 348.463C179 346.613 180.5 345.114 182.35 345.114H244.874C246.724 345.114 248.223 346.613 248.223 348.463V350.696C248.223 352.546 246.724 354.046 244.874 354.046H182.35C180.5 354.046 179 352.546 179 350.696V348.463Z" fill="white"/>
</svg>
